<svg xmlns="http://www.w3.org/2000/svg" version="1.1" xmlns:xlink="http://www.w3.org/1999/xlink" width="512" height="512" x="0" y="0" viewBox="0 0 500 500" style="enable-background:new 0 0 512 512" xml:space="preserve" class=""><g><path d="M311.573 151.84H190.165c-21.824 0-39.58 17.756-39.58 39.58v117.16c0 21.824 17.756 39.58 39.58 39.58h121.408c21.824 0 39.58-17.756 39.58-39.58V191.42c0-21.824-17.755-39.58-39.58-39.58zm24.58 156.74c0 13.553-11.026 24.58-24.58 24.58H190.165c-13.554 0-24.58-11.027-24.58-24.58V191.42c0-13.553 11.026-24.58 24.58-24.58h121.408c13.554 0 24.58 11.027 24.58 24.58zM197.565 96.438v28.434a7.5 7.5 0 1 0 15 0V96.438c13.35-3.357 23.263-15.458 23.263-29.834 0-16.963-13.8-30.763-30.763-30.763s-30.763 13.8-30.763 30.763c0 14.376 9.914 26.477 23.263 29.834zm7.5-45.597c8.692 0 15.763 7.071 15.763 15.763 0 8.691-7.071 15.763-15.763 15.763s-15.763-7.072-15.763-15.763c0-8.692 7.071-15.763 15.763-15.763zM285.697 96.438v28.434a7.5 7.5 0 1 0 15 0V96.438c13.35-3.357 23.263-15.458 23.263-29.834 0-16.963-13.8-30.763-30.763-30.763s-30.763 13.8-30.763 30.763c0 14.376 9.914 26.477 23.263 29.834zm7.5-45.597c8.692 0 15.763 7.071 15.763 15.763 0 8.691-7.071 15.763-15.763 15.763s-15.763-7.072-15.763-15.763c0-8.692 7.07-15.763 15.763-15.763zM302.435 403.562v-28.434a7.5 7.5 0 1 0-15 0v28.434c-13.35 3.357-23.263 15.458-23.263 29.834 0 16.963 13.8 30.763 30.763 30.763s30.763-13.8 30.763-30.763c0-14.376-9.914-26.477-23.263-29.834zm-7.5 45.597c-8.692 0-15.763-7.071-15.763-15.763 0-8.691 7.071-15.763 15.763-15.763s15.763 7.072 15.763 15.763c0 8.692-7.071 15.763-15.763 15.763zM214.303 403.562v-28.434a7.5 7.5 0 1 0-15 0v28.434c-13.35 3.357-23.263 15.458-23.263 29.834 0 16.963 13.8 30.763 30.763 30.763s30.763-13.8 30.763-30.763c0-14.376-9.914-26.477-23.263-29.834zm-7.5 45.597c-8.692 0-15.763-7.071-15.763-15.763 0-8.691 7.071-15.763 15.763-15.763s15.763 7.072 15.763 15.763c0 8.692-7.07 15.763-15.763 15.763zM375.128 212.565h28.434c3.357 13.35 15.458 23.263 29.835 23.263 16.962 0 30.762-13.8 30.762-30.763s-13.8-30.763-30.762-30.763c-14.376 0-26.478 9.914-29.835 23.263h-28.434a7.5 7.5 0 1 0 0 15zm58.269-23.263c8.69 0 15.762 7.072 15.762 15.763 0 8.692-7.071 15.763-15.762 15.763-8.693 0-15.764-7.071-15.764-15.763s7.071-15.763 15.763-15.763zM433.397 262.434c-14.377 0-26.478 9.913-29.835 23.263h-28.434a7.5 7.5 0 1 0 0 15h28.434c3.357 13.349 15.458 23.263 29.835 23.263 16.962 0 30.762-13.8 30.762-30.763s-13.8-30.763-30.762-30.763zm0 46.526c-8.693 0-15.764-7.071-15.764-15.763s7.071-15.763 15.763-15.763 15.763 7.07 15.763 15.763-7.071 15.763-15.763 15.763zM124.872 287.435H96.44c-3.358-13.35-15.459-23.263-29.835-23.263-16.963 0-30.763 13.8-30.763 30.763 0 16.962 13.8 30.763 30.762 30.763 14.377 0 26.478-9.914 29.836-23.263h28.433a7.5 7.5 0 1 0 0-15zm-58.268 23.263c-8.692 0-15.763-7.072-15.763-15.763 0-8.692 7.071-15.763 15.762-15.763 8.693 0 15.764 7.071 15.764 15.763 0 8.691-7.071 15.763-15.764 15.763zM124.872 199.303H96.44C93.08 185.954 80.98 176.04 66.603 176.04c-16.963 0-30.763 13.8-30.763 30.763s13.8 30.763 30.762 30.763c14.377 0 26.478-9.913 29.836-23.263h28.433a7.5 7.5 0 1 0 0-15zm-58.268 23.263c-8.692 0-15.763-7.07-15.763-15.763s7.071-15.763 15.762-15.763c8.693 0 15.764 7.071 15.764 15.763s-7.071 15.763-15.764 15.763z" fill="#fbf5ff" opacity="1" data-original="#000000" class=""></path><path d="M242.563 209.74a12.766 12.766 0 0 0-23.346 0l-32.361 73.08c-2.288 5.166 1.495 10.978 7.145 10.978a7.814 7.814 0 0 0 7.166-4.698l6.153-14.147a2.143 2.143 0 0 1 1.966-1.288h43.145c.853 0 1.625.506 1.965 1.288l6.145 14.13a7.843 7.843 0 0 0 7.193 4.715c5.671 0 9.468-5.833 7.172-11.02zm2.253 50.438h-27.724a2.143 2.143 0 0 1-1.966-2.996l13.863-31.914c.746-1.719 3.184-1.719 3.931 0l13.862 31.914a2.143 2.143 0 0 1-1.966 2.996zM298.831 202.143a8.117 8.117 0 0 0-8.117 8.117v75.42a8.117 8.117 0 0 0 16.234 0v-75.42a8.117 8.117 0 0 0-8.117-8.117z" fill="#fbf5ff" opacity="1" data-original="#000000" class=""></path></g></svg>